<?xml version="1.0" encoding="UTF-8"?>
<svg xmlns="http://www.w3.org/2000/svg" xmlns:xlink="http://www.w3.org/1999/xlink" width="90px" height="34px" viewBox="0 0 91 34" version="1.1">
<g id="surface1">
<path style=" stroke:none;fill-rule:nonzero;fill:rgb(64.313725%,20.784314%,94.117647%);fill-opacity:1;" d="M 14.050781 8.113281 L 7.023438 4.054688 L 0 8.113281 L 0 4.054688 L 7.023438 0 L 14.050781 4.054688 Z M 14.050781 8.113281 "/>
<path style=" stroke:none;fill-rule:nonzero;fill:rgb(0%,0%,0%);fill-opacity:1;" d="M 0 11.519531 L 3.679688 11.519531 L 3.679688 20.460938 C 3.679688 22.769531 5.40625 23.894531 7.023438 23.894531 C 8.660156 23.894531 10.371094 22.738281 10.371094 20.429688 L 10.371094 11.519531 L 14.050781 11.519531 L 14.050781 20.671875 C 14.050781 22.800781 13.382812 24.441406 12.042969 25.566406 C 10.703125 26.691406 9.03125 27.242188 6.992188 27.242188 C 4.957031 27.242188 3.285156 26.695312 1.976562 25.566406 C 0.667969 24.441406 0 22.863281 0 20.761719 Z M 45.867188 22.628906 C 44.753906 23.621094 43.484375 24.109375 42.035156 24.109375 C 39.394531 24.109375 37.625 22.605469 37.425781 20.273438 L 49.316406 20.273438 C 49.316406 20.273438 49.394531 19.523438 49.394531 18.816406 C 49.394531 16.628906 48.695312 14.800781 47.265625 13.3125 C 45.867188 11.820312 44.042969 11.09375 41.824219 11.09375 C 39.480469 11.09375 37.566406 11.820312 36.042969 13.3125 C 34.554688 14.800781 33.792969 16.746094 33.792969 19.183594 L 33.792969 19.300781 C 33.792969 21.703125 34.554688 23.621094 36.042969 25.050781 C 37.535156 26.480469 39.511719 27.210938 41.914062 27.210938 C 44.707031 27.210938 46.929688 26.109375 48.597656 24.207031 Z M 38.871094 15.167969 C 39.691406 14.527344 40.695312 14.195312 41.820312 14.195312 C 42.886719 14.195312 43.769531 14.527344 44.527344 15.199219 C 45.253906 15.808594 45.648438 16.558594 45.679688 17.417969 L 37.519531 17.417969 C 37.636719 16.527344 38.089844 15.777344 38.871094 15.167969 Z M 82.910156 29.277344 C 81.417969 32.800781 79.855469 34 77.460938 34 L 75.800781 34 L 75.800781 30.738281 L 77.140625 30.738281 C 77.964844 30.738281 78.730469 30.429688 79.460938 28.742188 L 80.191406 27.058594 L 73.894531 11.519531 L 77.636719 11.519531 L 82.109375 22.710938 L 86.699219 11.519531 L 90.441406 11.519531 Z M 28.378906 5.648438 L 28.378906 12.90625 C 27.171875 11.824219 25.296875 11.183594 23.480469 11.183594 C 21.320312 11.183594 19.496094 11.941406 18.007812 13.492188 C 16.546875 15.015625 15.816406 16.898438 15.816406 19.179688 C 15.816406 21.460938 16.546875 23.347656 18.007812 24.898438 C 19.496094 26.417969 21.320312 27.179688 23.480469 27.179688 C 25.972656 27.179688 27.546875 26.199219 28.378906 25.433594 L 28.378906 26.84375 L 32.027344 26.84375 L 32.027344 5.648438 Z M 27.28125 22.527344 C 26.398438 23.410156 25.273438 23.867188 23.96875 23.867188 C 22.660156 23.867188 21.59375 23.410156 20.714844 22.527344 C 19.863281 21.644531 19.4375 20.519531 19.4375 19.183594 C 19.4375 17.84375 19.863281 16.71875 20.714844 15.835938 C 21.59375 14.953125 22.660156 14.496094 23.96875 14.496094 C 25.273438 14.496094 26.398438 14.953125 27.28125 15.835938 C 28.195312 16.71875 28.652344 17.84375 28.652344 19.183594 C 28.652344 20.519531 28.195312 21.644531 27.28125 22.527344 Z M 68.222656 11.214844 C 65.449219 11.214844 64.007812 12.363281 63.023438 13.472656 C 62.628906 12.71875 61.515625 11.214844 58.917969 11.214844 C 56.722656 11.214844 55.425781 12.324219 54.78125 13.113281 L 54.78125 11.519531 L 51.164062 11.519531 L 51.164062 26.847656 L 54.78125 26.847656 L 54.78125 18.027344 C 54.78125 15.960938 56.058594 14.46875 57.761719 14.46875 C 59.496094 14.46875 60.5 15.777344 60.5 17.875 L 60.5 26.847656 L 64.117188 26.847656 L 64.117188 18.027344 C 64.117188 15.929688 65.363281 14.46875 67.15625 14.46875 C 68.890625 14.46875 69.894531 15.777344 69.894531 17.871094 L 69.894531 26.84375 L 73.546875 26.84375 L 73.546875 17.355469 C 73.546875 13.359375 71.398438 11.214844 68.222656 11.214844 Z M 68.222656 11.214844 "/>
</g>
</svg>
